<?xml version="1.0" standalone="no"?>
<!DOCTYPE svg PUBLIC "-//W3C//DTD SVG 20010904//EN"
 "http://www.w3.org/TR/2001/REC-SVG-20010904/DTD/svg10.dtd">
<svg version="1.0" xmlns="http://www.w3.org/2000/svg"
 width="270.000000pt" height="270.000000pt" viewBox="0 0 270.000000 270.000000"
 preserveAspectRatio="xMidYMid meet">
<metadata>
Created by potrace 1.11, written by Peter Selinger 2001-2013
</metadata>
<g transform="translate(0.000000,270.000000) scale(0.100000,-0.100000)"
fill="#000000" stroke="none">
<path d="M0 1350 l0 -1350 1350 0 1350 0 0 1350 0 1350 -1350 0 -1350 0 0
-1350z m727 528 c10 -13 433 -1091 433 -1102 0 -4 -30 -6 -67 -4 l-68 3 -66
170 -67 170 -223 0 -223 0 -66 -170 -66 -170 -68 -3 c-53 -2 -67 0 -63 10 2 7
98 249 212 538 114 289 211 535 216 548 7 19 16 22 58 22 27 0 53 -6 58 -12z
m1087 -27 c142 -46 217 -168 203 -328 -7 -86 -35 -151 -86 -202 -78 -78 -172
-109 -358 -118 l-123 -6 0 -214 0 -213 -70 0 -70 0 0 556 0 556 218 -4 c191
-4 225 -7 286 -27z m566 -526 l0 -555 -65 0 -65 0 0 555 0 555 65 0 65 0 0
-555z"/>
<path d="M661 1697 c-6 -16 -11 -33 -11 -38 0 -5 -34 -100 -76 -210 -42 -110
-74 -202 -71 -205 2 -2 81 -3 174 -2 l170 3 -59 155 c-32 85 -71 193 -87 240
-28 82 -30 84 -40 57z"/>
<path d="M1450 1539 l0 -221 128 4 c135 6 197 21 241 61 85 78 80 263 -9 327
-52 37 -114 50 -242 50 l-118 0 0 -221z"/>
</g>
</svg>
